<?xml version="1.0" encoding="UTF-8"?><svg id="_レイヤー_2" xmlns="http://www.w3.org/2000/svg" width="215.4mm" height="133.45mm" viewBox="0 0 610.59 378.28"><defs><style>.cls-1{fill:#fff;}</style></defs><path class="cls-1" d="M137.58,319.53c-.38-.5-.69-.78-1.06-.91-.42-.16-1.09-.07-1.62.16-3.18,1.38-6.69,3.37-10.02,4.7-1.13.36-1.72.98-1.92,1.71-.24.91.31,1.9.88,3.03,12.8,25.51-26.67,30.42-35.24,31.51-28.85,3.66-51.86-7.67-53.27-24.56-1.66-19.98,21.36-29.92,32.88-32.39,6.82-1.46,9.97-2.33,15.61-2.87.82-.08,1.85-.01,2.17.12s.38.5.5.81c.97,2.5,2.02,6.82,3.16,9.38.16.36.29.61.59.79.33.2.54.16,1.06.15,2.92-.04,13.1-3.95,13.85-4.35.53-.28.84-.61.99-1.01.17-.43.14-.96-.01-1.61-.23-.97-.73-2.23-1.28-3.93-1.19-3.69,12.93-.56,14.82-.67.99.11,1.75-.06,2.35-.44.44-.28.78-.66,1.06-1.13,1.04-1.72,1.64-10.01,1.48-11.54-.05-.51-.21-.97-.52-1.33s-.74-.62-1.38-.77c-5.27-.94-19.53-1.44-21.02-1.64-.5-.07-.97-.21-1.38-.49-.19-.18-.36-.39-.5-.62-.55-.91-.68-2.16-.27-3.07.13-.29.32-.55.56-.75.33-.27.77-.44,1.33-.46,3.55-.42,6.42-.99,9.56-2.1,9.13-2.73,19.78-8.24,22.19-18.21s-.35-21.97-18.58-24.26-32.93,8.41-33.45,28.9c.06.96-.59,1.54-1.68,1.87-3.78,1.13-12.78.24-14.86-.09-7.15-1.76-26.99-4.6-26.42-23.04.74-24.18,32.64-28.13,65.68-23.45,1.43.2,2.59.47,3.29.1.83-.45.86-1.03,1.07-1.89.33-1.38,1.49-7.5,1.73-9.69.07-.67.27-1.7-.23-2.62s-1.21-1.36-2.31-1.68c-7.93-2.31-28.67-2.4-34.97-1.98-20.73,1.37-50.65,10.98-51.57,40.75-1.02,33.01,33.5,38.05,49.07,38.17,2.98.02,6.13.31,9.27.55.49.04.98.08,1.47.12.46.07.87.38,1.19.82.48.65.78,1.59.78,2.45s-.3,1.65-.99,2c-.68.13-1.37.25-2.05.37-9.07,1.6-63.77,8.75-62.5,51.56,1.2,40.13,51.87,44.87,74.75,41.33,36.9-5.72,48.11-20.41,51.24-32.62s-4.09-23.41-5.45-25.18ZM98.37,257.41c.64-2.26,4.13-8.79,9.94-9.91,2.7-.52,6.95-.1,8.83,2.13,1.14,1.29.99,4.87-.21,6.08-4.06,4.08-12.48,6.84-17.13,7.92-3.54.82-1.85-4.73-1.43-6.22Z"/><path class="cls-1" d="M608.55,121.38c.08-.83-.03-1.8-.32-2.18-.4-.52-.66-.53-1.65-.78-2.95-.75-9.09-1.39-11.78-1.4-.66,0-1.88-.12-2.38.59s-1.12,7.16-1.19,7.98c-.67,7.43-4.58,32.64-45.67,32.19-20.85-.23-37.63-9.36-39.11-25.4-2.53-27.49,39.85-29.76,40.01-27.86.92,10.45,2.48,14.45,4.12,14.82,1.3.29,12.83.42,14.47-1.64,1.46-1.82-2.5-10.74-1.24-12.51,1.56-2.18,14.57,2.31,16.68,1.89s3.06-11.61,2.38-13.34-.31-1.55-13.3-3.62c-3.32-.53-6.93-.46-7.66-1.6-.33-.52-.42-1.64.04-2.65.99-2.15,26.24-2.33,31.54-17.31s-6.32-27.4-18.99-26.09c-29.9,3.08-24.95,29.37-30.01,29.24s-9.94-1.97-14.06-4.33c-8.6-4.6-12.51-13.75-12-22.73.42-7.35,4.17-22.6,24.8-25.96,17.23-2.81,27.64-.37,31.06.36.58.12,1.46.28,1.94.02.52-.29.77-1.27.86-1.65.54-2.33,1.21-7.43,1.28-10.33,0-.38.01-.78-.39-1.31-.24-.31-.49-.54-.84-.79-2.15-1.47-14.01-2.01-22.38-2.01-29.52,0-51.66,15.74-51.69,42.22-.03,20.02,13.17,34.71,30.42,38.54,6.88,1.53,11.29.94,12.05,2.14.39.61.41,2.44-.26,2.77-1.06.52-25.88-.4-38.92,9.25-10.21,7.56-16.92,16.82-16.92,32.82,0,28.78,26.85,43.36,55.01,43.36,65.9,0,63.39-45.45,64.07-52.7ZM562.18,65.93c1.34-2.72,3.57-6.85,9.49-9.79,4.52-2.24,11.98,1.68,9,8.13-2.2,4.75-10.15,6.87-15.72,7.44-5.1.52-4.14-2.97-2.76-5.78Z"/><path class="cls-1" d="M469.03,66.59c-6.62-6.14-16.98-5.06-22.35-12.75-3.96-6.3.64-14.87-3.27-21.19-12.37-18.1-40.55-12.82-58.77-8.51-7.27,1.57-14.28,3.86-21.1,6.85-.68.36-1.61.54-1.23-.52,4.2-11.66,17.37-25.82,13.65-28.53-5.33-3.89-19.09,22.54-23.82,33.37-2.53,5.79-17.71,8.52-16.62,13.19.88,3.79,7.13.18,9.36-.96,5.78-2.96-.9,6.05-2.8,26.37-3.57,38.13,13.45,91.45,17.89,91.28,1.62-.06,2.23-1.5,2.12-9.16-.3-24.6,18.97-37.21,18.12-53.76-2.73-13.59-15.12-22.84-21.2-34.75-2.82-5.7-4.99-20.47.32-24.7,1.55-1.23,40.12-6.22,52.54,5.65,24.78,23.69,22.69,51.67,22.6,68.14-.12,20.57-7.02,42.59-3.81,43.63,3.03.98,26.25-23.92,41.86-61.07,0,0,8.18-21.78-3.46-32.57Z"/><path class="cls-1" d="M464.03,306.28c-3.21-23.94-38.3-21.67-43.71-21.56-1.68.03-9.39.78-8.12,3.27,1.3,1.56,3.46,2.13,5.21,2.9,20.66,9.06,23.49,27.83,23.84,33.04.72,9.63.93,19.63-2.47,28.81-1,3.08-2.49,5.9-3.32,8.99-.07.7-.02,1,.38,1.43,2.82,1.88,5.96-6.6,7.15-8.39,2.48-4.23,4.71-8.58,7.04-12.9,3.02-5.01,16.31-18.58,14.01-35.45v-.14Z"/><path class="cls-1" d="M352.9,268.62c-2.9-10.8,1.06-18.27,8.47-33.64,1.64-3.41,7.17-9.67,5.98-10.5s-6.47,3.21-7.14,3.72c-8.06,7.25-29.68,29.95-30.77,61.33-1.16,33.56,30.63,66.82,37.55,74.11,2.58,2.54,5.06,5.57,7.73,8.14.56.37.97.41,1.23.24.43-.28.43-1.12-.04-1.88-2.57-5.74-4-11.67-5.44-17.82-2.35-10.07,6.1-19.93,8.27-24.43,3.83-6.73,6.01-11.71,5.86-22.15-3.18-20.13-24.78-11.37-31.7-37.13Z"/><path class="cls-1" d="M450.02,233.26c-12.76-41.82-87.27-28.3-90.15-27.44-1.1.31-2.33.83-2.65,1.6-.42,1.2,1.23,1.49,2.11,1.52,10.28-.45,53.49-3.77,59.39,30.64,3.67,21.36-22.43,44.57-25.27,47.57-.64.77-1.69,1.78-1.38,2.76.43.67,1.68.64,3.38.19,5.17-1.38,63.27-28.33,54.57-56.85Z"/><path class="cls-1" d="M562.82,209.13c-47.14-4.96-80.86,33.4-86.7,40.08-1.79,2.04-2.85,3.11-3.07,4.07-.25,1.07.69,1.98,1.47,2.94,1.3,1.61,6.67,7.01,8.32,8.56.96.9,1.43,1.26,2.49,1.1.8-.12,1.13-.59,2.73-2.62,4.72-5.53,30.92-33.22,55.81-36.35,20.16-2.54,38.43,3.43,44.8,21.72,7.48,21.51,3.07,45.81-3.31,66.69-6.65,21.75-25.8,35.45-43.12,34.81-11.41-.43-21.68-7.72-25.96-24.79-4.64-18.51,2.3-40.01,3.12-44.89.12-.71.35-1.54.09-2.03s-1.44-.75-2.23-.96c-2.9-.76-7.35-1.84-10.44-2.35-2.6-.44-2.69-.55-3.3-.12s-.98,2.35-1.37,4.15c-13.7,58.07,8.59,85.6,38.16,89.05,35.7,4.17,73.63-27.3,70.04-102.57,0,0-.06-51.48-47.53-56.48Z"/><path class="cls-1" d="M166.09,31.7c5.87-10.3,18.01-20.22,23.83-24.03,4.97-3.26,3.91-4.32,3.59-4.73-.48-.6-1.53-1.56-28.5,15.32-6.78,4.24-24.73,15.04-45.53,12.42-15.44-1.94-30.34-25.82-58.72-22.79C30.47,11.11,12.33,44.63,8.62,51.72c-2.96,5.67-10.3,23.63-8.27,24.8,2.73,1.6,4.87-3.78,5.95-5.48,5.16-8.77,16.95-30.25,37.21-27.87,11.82,1.39,25.55,14.86,39.19,16.59,19.66,2.49,22.13-13.74,31.1-14.4s13.71,7.91,27.9,7.1c11.98-.68,20.18-14.17,24.29-20.63l.09-.13Z"/><path class="cls-1" d="M136.69,102.47c-5.24,5.81-45.45,50.03-62.79,40.19-29.6-16.79-4.26-50.72.96-58.81,3.44-5.33,10.7-12.08,8.82-13.13-4.68-2.61-62.76,44.59-41.25,72.1,7.84,10.03,22.43,2.35,29.41,6.92s7.16,20.24,25,23.36c12.92,2.26,26.54-12.24,32.28-21.99s10.99-27.02,13.14-40.85c1.09-6.99,4.36-11.88,9.24-18.46,1.43-1.92,5.05-6.22,3.67-7.17-1.76-1.21-12.83,12.3-18.5,17.85Z"/><path class="cls-1" d="M311.33,40.87C307.38,12.44,290.66.67,270.19.03c-74.87-2.36-104.89,139.34-100,141.09,2.81,1,17.33-54.58,45.09-87.78,17.04-20.38,39.72-29.29,51.28-21.77,8.59,5.59,11.96,16.49,7.91,25.83-2.07,6.56-6.21,12.7-8.59,19.07-6.95,22.78,16.5,23.66,13.58,52.84-2.09,20.93-14.62,44.97-11.04,46.82,8.83,4.56,51.11-76.21,42.9-135.26Z"/><path class="cls-1" d="M214.2,85.45c-3.99,6.34-7.54,23.5,7.49,29.99,9.04,3.91,21.2,1.71,26.82-11.08,5.59-12.73.05-20.74-6.84-25.41-9.81-6.65-22.28-1.74-27.46,6.5Z"/><path class="cls-1" d="M318.03,322.26c-2.73.02-4.74,1.77-7.18,2.69-3.15,1.58-6.42,2.75-9.53,4.23-11.64,4.95-23.23,10.13-35.65,12.94-10.68,1.9-21.67,4.02-32.57,2.86-13.33-1.28-28.56-7.29-25.85-23.6.13-5.33,6.91-19.06,12.19-20.57,13.19,1.06,27.05-.35,38.74-6.68,8.07-4.88,5.55-5.28-2.27-4.59-6.49-.13-12.93-.49-19.07-2.1-2.46-.56-3.44-1.22-3.54-1.95-.08-.6.43-1.24,1.2-1.91,1.31-1.14,9.78-8.4,20.18-15.08,1.03-.66,1.21-1.39.9-1.95-1.47-2.65-11.28,1.99-17.76,4.86-10.6,4.7-14.16,9.23-16.03,6.88-5.16-6.49-7.5-9.85-7.5-24.27s14.07-32.78,32.45-39.44c7.66-2.78,15.44-5.12,23.28-7.14.27-.07,1.44-.3,1.52-1.2.03-.32-.11-.67-.41-1-1.61-1.66-5.2-1.13-6.94-1.18-10.5.56-89.53,10-86.29,66.45.59,10.33,12.75,20.71,18.73,23.35.79.35,1.46.65,1.78,1.28.11.21.06.47-.1.64-.24.25-.47.52-.73.75-12.16,10.34-22.56,19.69-26.46,34.15-6.72,26.36,14.62,39.24,37.95,40.31,42.85,1.97,77.34-19.91,98.76-36.67,3.56-2.78,13.55-10.67,10.32-12.04l-.12-.04Z"/></svg>